<svg xmlns="http://www.w3.org/2000/svg" xmlns:xlink="http://www.w3.org/1999/xlink" version="1.1" id="Location-Icon" x="0px" y="0px" width="100px" height="100px" viewBox="0 0 100 100" enable-background="new 0 0 100 100" xml:space="preserve">
<path id="Dot" fill="#000000" d="M50,23.987c-7.463,0-13.513,6.05-13.513,13.514S42.537,51.014,50,51.014  c7.464,0,13.514-6.05,13.514-13.513S57.464,23.987,50,23.987L50,23.987z"/>
<path id="Outline" d="M50,5c17.92,0,32.5,14.58,32.5,32.5c0,10.559-8.137,20.604-17.557,32.232  C60.029,75.802,54.627,82.473,50,89.85c-4.626-7.377-10.029-14.048-14.944-20.115C25.635,58.104,17.5,48.059,17.5,37.5  C17.5,19.58,32.08,5,50,5 M50,0C29.289,0,12.5,16.789,12.5,37.5c0,20.71,25,37.5,37.5,62.5c12.5-25,37.5-41.79,37.5-62.5  C87.5,16.789,70.711,0,50,0L50,0z"/>
</svg>